# xmcd CD database file
# Copyright (C) 1993-1998 Ti Kan
#
# Track frame offsets:
#	222
#	12980
#	22347
#	34830
#	47842
#	60185
#	71870
#	83715
#	95537
#	107950
#	119582
#	132072
#	146405
#	157845
#	170687
#	183450
#	192602
#	207070
#	220197
#	234000
#	244992
#	257257
#
# Disc length: 3605 seconds
#
# Revision: 0
# Processed by: cddbd v1.4b41PL1 Copyright (c) Steve Scherf et al.
# Submitted via: CDmax 1.5
#
DISCID=360e1316
DTITLE=Jimmy Reed - Rockin' With Reed
DYEAR=1900
DGENRE=
TTITLE0=I Found My Baby
TTITLE1=Shoot My Baby
TTITLE2=Roll and Rhumba
TTITLE3=You Upset My Mind
TTITLE4=Pretty Thing
TTITLE5=Rockin' With Reed
TTITLE6=She Don't Want Me No More
TTITLE7=Come On Baby
TTITLE8=I Don't Go For That
TTITLE9=When You Left Me
TTITLE10=Do The Thing
TTITLE11=Little Rain
TTITLE12=Signals Of Love
TTITLE13=The Sun Is Shining
TTITLE14=Caress Me Baby
TTITLE15=Laughing At The Blues
TTITLE16=Baby What's Wrong
TTITLE17=Let's Get Together
TTITLE18=Help Yourself
TTITLE19=Left Handed Woman
TTITLE20=A New Leaf
TTITLE21=I'm Going Upside Your Head
EXTD=CHARLY R&B CD CHARLY 61, 1987
EXTT0=
EXTT1=
EXTT2=
EXTT3=
EXTT4=
EXTT5=
EXTT6=
EXTT7=
EXTT8=
EXTT9=
EXTT10=
EXTT11=
EXTT12=
EXTT13=
EXTT14=
EXTT15=
EXTT16=
EXTT17=
EXTT18=
EXTT19=
EXTT20=
EXTT21=
PLAYORDER=
